<?xml version="1.0" encoding="UTF-8"?>
<svg id="Layer_1" data-name="Layer 1" xmlns="http://www.w3.org/2000/svg" viewBox="0 0 800 800">
  <defs>
    <style>
      .cls-1 {
        fill: none;
      }

      .cls-2 {
        fill: #010101;
      }
    </style>
  </defs>
  <rect class="cls-1" width="800" height="800"/>
  <path class="cls-2" d="M713.21,391.9c-31.1-50.75-66.11-99.75-94.62-151.75,6.32-61.4-5.25-125.32-77.27-133.04H92.04c-41.43,3.32-74.24,35.76-77.37,77.37l-.02,426.77c3.7,30.64,36.69,19.65,58.46,21.91,22.2,71.62,118.27,81.84,153.7,14.33,2.28-4.35,3.29-13.64,7.98-14.56l320.55.22c24.64,79.04,133.86,79.45,159.38.49,21.05-4.56,65.35,10.57,69.2-20.93-8.83-77.54,33.89-196.31-70.7-220.81ZM653.81,382.2c1.92,3.13,4.66,6.86,5.38,10.39h-178.77v-120.18h102.9c23.25,36.7,47.76,72.76,70.48,109.79ZM158.07,647.84c-50.16,6.33-57.95-68.26-11.51-74.58,51.7-7.04,58.65,68.63,11.51,74.58ZM442.08,233.31c-1.17,1.08-6.72,10.65-6.72,11.3v343.26h-202.05c-4.4-7.97-6.98-16.22-12.15-23.9-32.98-48.93-105.78-47.74-137.94,1.5-2.82,4.32-9.08,21.54-10.1,22.2-1.93,1.24-10.23-.43-13.32.2V183.03c0-.63,3.97-10.24,4.77-11.75,5.93-11.13,16.86-17.01,29.02-19.05l443.23-.05c13.13.64,25.74,7.43,31.97,19.11.8,1.51,4.77,11.12,4.77,11.75v44.32h-120.93c-.61,0-9.63,5.11-10.55,5.97ZM640.29,647.84c-50.16,6.33-57.95-68.26-11.51-74.58,51.7-7.04,58.65,68.63,11.51,74.58ZM738.81,587.88h-23.28c-6.61-15-13.09-27.95-25.5-39.1-45.56-40.93-117.92-18.95-134.49,39.1h-75.11v-150.22h227.59c4.08,0,17.04,7.8,20.34,11.2,3.04,3.13,10.45,15.93,10.45,19.59v119.43Z"/>
</svg>