<?xml version="1.0" encoding="UTF-8"?>
<svg id="Layer_1" data-name="Layer 1" xmlns="http://www.w3.org/2000/svg" viewBox="0 0 800 800">
  <defs>
    <style>
      .cls-1 {
        fill: none;
      }

      .cls-2 {
        fill: #010101;
      }
    </style>
  </defs>
  <rect class="cls-1" width="800" height="800"/>
  <path class="cls-2" d="M751.03,107.53c-10.14-44.16-46.64-76.9-91.93-81.47l-517.95-.22c-51.67,3.41-101.56,57.49-94.35,109.88,2.3,16.73,20.53,36.21,37.82,36.21h127.61v521.16c0,11.4,12.01,32.05,20.41,39.98,14.95,14.13,43.97,39.15,64.35,40.84,43.89,3.65,49.67-33.17,81.13-39.62,56.89-11.66,60.66,44.99,111.53,39.43,40.24-4.4,44.96-50.37,98.3-39.43,21.54,4.42,32.66,26.74,50.94,34.78,16.44,7.23,36.63,6.65,52.48-2.08,7.22-3.98,43-33.46,47.91-39.76,8.37-10.73,13.57-26.42,14.63-39.92-1.98-193.17,3.66-386.97-2.88-579.78ZM87.54,129.07c5.54-81.35,121.61-81.97,124.69,0h-124.69ZM704.92,702.61c-4.71,4.86-25.21,21.42-31.09,25.41-3.33,2.26-8.28,5.24-12.39,4.99-5.87-.36-28.07-22.42-36.83-27.59-33.31-19.64-73.04-17.98-105.59,2.22-9.3,5.77-26.74,24.86-35.17,25.35-8.92.52-14.97-10.64-21.34-15.5-39.27-29.98-83.74-36.49-126.25-7.52-8.26,5.63-22.86,23.03-31.55,22.83-9.51-.22-33.26-26.89-43.51-32.21l-4.28-13.26.18-563.22c-1.84-19.83-7-38.79-13.72-57.39h410.11c26.46,0,56.33,28.81,57.56,55.44v569.06c-.27,4.61-3.1,8.25-6.15,11.39ZM314.98,503.6l332.69-.47c29.74,2.55,29.84,40.26,0,42.87h-329.27c-27.4-1.19-30.7-37.83-3.42-42.4ZM663.62,425.81c13.67,12.09,4.35,36.27-14.01,36.41h-333.15c-25.63-1.58-27.97-38.05-1.99-40.96l335.24-.05c4.36.05,10.71,1.77,13.91,4.61ZM521.47,316.54c39.74,2.9,89.4-5.5,127.97-.27,27.51,3.73,27.48,38.8,0,42.52-38.25,5.18-86.95-3.4-126.34.05-24.55-5.56-25.78-35.07-1.63-42.29ZM663.62,186.9c-2.69,2.38-8.38,4.15-12.02,4.56-41.01,4.59-90.48-3.44-132.41-.16-21.5-4.94-19.3-37.19,1.94-40.71,40.37,3.76,91.15-5.45,130.25.08,17.3,2.45,25.72,24.29,12.24,36.23ZM663.62,238.77c13.48,11.94,5.06,33.78-12.24,36.23-39.1,5.53-89.88-3.68-130.25.08-21.24-3.52-23.44-35.77-1.94-40.71,41.93,3.27,91.4-4.75,132.41-.16,3.64.41,9.34,2.18,12.02,4.56ZM461.65,184.54c-3-16.1-17.91-31.64-34.31-33.88-18.55-2.53-78.25-2.38-96.73.34-17.74,2.61-32.26,18.03-34.39,35.75-3.63,30.26-3.06,101.37-.3,132.34,2.12,23.74,19.01,37.68,42,39.83,18.51,1.73,80.89,2.28,96.35-2.95,14.61-4.94,25.58-17.42,27.34-33.06,4.84-42.96-3.66-94.48.04-138.38ZM420.69,316.1h-83.77v-121.77c0-.21,2.72-2.92,2.92-2.92h80.85v124.69Z"/>
</svg>