<?xml version="1.0" encoding="UTF-8"?>
<svg id="Layer_1" data-name="Layer 1" xmlns="http://www.w3.org/2000/svg" viewBox="0 0 800 800">
  <defs>
    <style>
      .cls-1 {
        fill: none;
      }

      .cls-2 {
        fill: #010101;
      }
    </style>
  </defs>
  <rect class="cls-1" width="800" height="800"/>
  <path class="cls-2" d="M760.9,667.33c-46.34-69.34-83.76-149.2-130.67-217.59-9.85-14.37-21.05-25.51-38.72-29.62,9.6-92.82-29.91-184.83-100.8-243.98l36.69-53.78-34.65-24.18-37.48,53.06c-37-21-78.67-35.79-121.52-37.5v-44.61h43.17V25.95h-129.52v43.17h43.17v44.61c-42.88,1.64-84.47,16.62-121.52,37.5l-37.48-53.06-34.65,24.18,36.68,53.78C24.97,266.38-1.03,423.95,75.55,543.91c66.7,104.47,194.26,152.28,314.32,119.58-26.63,43.7,1.95,95.83,52.46,99.35,85.32,5.94,177.45-4.64,263.48,0,47.85-1.96,77.26-53.01,55.08-95.5ZM79.7,343.94c20.76-102.97,111.86-180.89,216.34-188.05,140.47-9.62,261.85,108.09,253.64,249.32-.15,2.63-1.73,17.18-2.2,17.95-1.29,2.14-23.3,12.2-24.96,19.65l-94.58,157.26c-178.1,98.32-388.65-55.7-348.24-256.14ZM705.79,719.63l-262.02.04c-4.34.04-11.58-3.34-14.55-6.31-10.19-10.19-6.23-19.91-.73-30.7,36.35-71.27,89.14-140.11,126.86-211.33,8.16-13.26,25.64-14.5,35.79-2.62l128.55,213.96c11.09,14.95,4.48,33.54-13.88,36.98ZM333.75,241.82v129.52h129.52v43.17h-172.69v-172.69h43.17ZM595.67,525.32v86.35h-43.17v-86.35h43.17ZM595.67,654.84v43.17h-43.17v-43.17h43.17Z"/>
</svg>