<?xml version="1.0" encoding="UTF-8"?>
<svg id="Layer_1" data-name="Layer 1" xmlns="http://www.w3.org/2000/svg" viewBox="0 0 800 800">
  <defs>
    <style>
      .cls-1 {
        fill: none;
      }

      .cls-2 {
        fill: #010101;
      }
    </style>
  </defs>
  <rect class="cls-1" width="800" height="800"/>
  <path class="cls-2" d="M772.33,189.16l-6.21-11.33L618.25,30.52l-7.75-3.94-347.16-.74c-32.13,3.19-56.59,27.42-60.58,59.25l-.03,295.89c-81.49,7.75-151.96,71.14-170.25,150.52-27.76,120.49,59.08,234.49,181.16,242.66h495.52c34.6-1.88,60.86-27.56,63.55-62.12l-.38-522.88ZM626.53,101.88l70.14,70.14h-70.14v-70.14ZM102.76,670.22c-72.93-96.28-11.5-236.3,108.46-246.41,125.12-10.54,209.92,125.6,144.11,233.25-55.71,91.13-187.9,98.53-252.57,13.16ZM728.82,713.45c0,4.3-12.5,16.81-16.81,16.81h-363.14l26.26-25.61c24.67-30.19,41.66-66.71,45.35-105.89l230.18.02c25.5-4.43,26.49-37.72,1.34-43.79l-231.52-.1c-1.37-16.59-5.85-33.42-11.68-48.97-5.14-13.7-12.63-25.7-19.02-38.7h263.77c.99,0,10.3-5.75,11.64-7.36,10.82-13.03,4.04-31.9-11.97-36.15l-303.6-.36c-30.2-22.3-64.95-39.29-103.04-42.36l-.05-291.55c-.74-6.47,11.45-19.7,16.84-19.7h319.3v129.33c0,.64,5.4,9.94,6.54,11,.9.83,9.68,5.81,10.27,5.81h129.33v497.58ZM322.17,292.18l328.51-.37c26.2,4.57,26.25,39.31,0,43.91h-325.95c-24.9-4.29-26.63-36.4-2.56-43.55ZM204.93,598.74c-19.79-2.66-36.77-22.1-38.71-41.66-2.76-27.79-1.38-57.83,26.74-71.14,2.38-1.13,9.3-2.41,9.63-2.79.68-.79-.16-10.24.48-13.41,3.24-16.14,23.68-22.32,36.15-11.97,9.64,8.01,6.44,24.15,7.51,25.38.47.54,9.94,2.85,13.45,4.81,14.61,8.15,25.38,27.18,22.58,43.94-3.37,20.18-31.3,25.12-40.86,6.49-1.29-2.52-3.01-12.72-4.82-12.72h-24.84c-.15,0-2.19,2.04-2.19,2.19v24.84c0,.15,2.04,2.19,2.19,2.19h32.15c18.68,0,36.97,24.07,38.71,41.66,2.76,27.79,1.38,57.83-26.74,71.14-2.38,1.13-9.3,2.41-9.63,2.79-.68.79.16,10.24-.48,13.41-3.24,16.14-23.68,22.32-36.15,11.97-9.64-8.01-6.44-24.15-7.51-25.38-.47-.54-9.94-2.85-13.45-4.81-14.61-8.15-25.38-27.18-22.58-43.94,3.37-20.18,31.3-25.12,40.86-6.49,1.29,2.52,3.01,12.72,4.82,12.72h24.84c.15,0,2.19-2.04,2.19-2.19v-24.84c0-.15-2.04-2.19-2.19-2.19-9.59,0-23.21,1.2-32.15,0Z"/>
</svg>