<?xml version="1.0" encoding="UTF-8"?>
<svg id="Layer_1" data-name="Layer 1" xmlns="http://www.w3.org/2000/svg" viewBox="0 0 800 800">
  <defs>
    <style>
      .cls-1 {
        fill: none;
      }
    </style>
  </defs>
  <rect class="cls-1" width="800" height="800"/>
  <path d="M719.91,302.24c-37.4-68.5-50.21-194.67-146.47-201.63-113.55-8.21-236.85,6.44-351.43.02-93.09,8.01-107.37,135.11-143.98,201.61-62.17,30.16-64.64,105.08-57.62,165.75,3.99,34.46,26.81,57.64,51.95,78.51,6.01,47.27-21.12,140.83,49.39,148.81,26.79,3.03,95.92,2.92,122.66-.29,23.33-2.8,43.53-22.72,46.69-46.13,3.64-26.94-2.7-61.28,0-89.06h215.76v89.06c0,1.34,4.25,12.09,5.34,14.73,7.19,17.42,22.61,29.16,41.35,31.41,26.73,3.21,95.89,3.32,122.66.29,70.51-7.99,43.37-101.56,49.39-148.81,25.84-20.34,47.92-44.05,51.94-78.51,7.08-60.62,4.58-135.9-57.62-165.75ZM190.24,179.25c11.27-17.04,26.7-24.21,46.82-25.94,104.8,5.87,217.47-7.49,321.33-.02,21.7,1.56,36.37,8.1,49.96,25.3l46.52,110.28H143.07l47.17-109.63ZM235.9,642.62h-107.88v-82.79h107.88v82.79ZM669.92,642.62h-107.88v-82.79h107.88v82.79ZM687.46,503.36c-185.89,8.56-373.78,1.74-560.39,3.47-56.07-6.08-58.07-58.02-54.21-103.76,2.47-29.33,14.42-50.84,44.46-58.4h563.29c28.74,7.43,41.85,27.18,44.46,55.89,3.31,36.31,4.22,89.15-37.62,102.8ZM318.09,397.41c29.92-4.34,132.17-4.52,162.2-.43,34.06,4.64,36.64,44.39,5.1,54.83h-172.82c-31.56-10.86-29.1-49.37,5.53-54.4ZM222.48,387.59c46.97,52.24-27.83,123.39-77.02,78.28-56.49-51.8,28.65-132.08,77.02-78.28ZM601.5,372.24c95.12-19.32,85.64,133.4-4.37,103.59-51.34-17.01-43.08-93.95,4.37-103.59Z"/>
</svg>