<?xml version="1.0" encoding="UTF-8"?>
<svg id="Layer_1" data-name="Layer 1" xmlns="http://www.w3.org/2000/svg" viewBox="0 0 800 800">
  <defs>
    <style>
      .cls-1 {
        fill: none;
      }

      .cls-2 {
        fill: #010101;
      }
    </style>
  </defs>
  <rect class="cls-1" width="800" height="800"/>
  <path class="cls-2" d="M773.5,175.67c-5.43-85.38-72.82-150.61-157.98-154.77-138.78,5.09-282.1-6.53-420.35,0C100.76,25.34,42.84,74.11,37.2,170.86v527.8c1.45,35.05,31.37,61.73,66.61,58.45,27.79-2.59,59.91-37.57,83.71-52.61,3.18-2.01,6.47-5.5,10.56-4.87,9.96,1.54,58.3,62.93,80.27,72.21,57.94,24.48,85.72-40.24,122.95-68.48,8.36-6.34,8.78-3.8,16.57,1.13,38.08,24.06,77.87,78.42,126.97,39.76,10.14-7.98,23.29-27.8,23.29-40.86v-323.17h114.67c30.64,0,69.56-36.09,81.27-63.08,13.33-30.72,11.65-106.29,9.41-141.48ZM516.89,693.86c.18,7.68-4.75,14.72-12.84,11.09-29.6-18.22-62.77-59.97-100.3-56.86-39.86,3.31-63.63,53.25-93.03,73.75-7.09,4.95-10.18,4.23-16.87-.77-25.32-18.93-46.52-60.52-78.88-70.28-48.28-14.57-79.27,36.92-117.57,55.17-4.25.16-6.57-2.85-8.09-6.49l-.79-523.8c4.13-70.95,37.12-99.57,106.74-103.36h331.17c-3.79,11.85-8.69,23.37-9.67,36.01l.13,585.54ZM721.69,281.18c-2.41,17.82-24.65,47.73-43.69,47.73h-109.86V108.38c0-18.35,26.83-36.16,44.11-36.21,50.5-.15,98.28,40.75,107.53,89.86,4.54,24.1,5.24,94.55,1.91,119.15ZM296.66,261.91h114.73c27.58,6.65,24.23,47.11-2.98,50.81-33.16,4.5-75.96-2.75-110.14-.24-26.83-6.65-29.09-42.91-1.62-50.57ZM298.28,398.25c16.18-2.76,95.27-2.73,111.5,0,26.66,4.48,28.37,45.73.29,50.84l-113.41-.26c-26.85-7.14-25.8-45.9,1.63-50.58ZM174.17,310.69c-24.85-25.01,2.53-70.41,39.52-54.76,47.7,20.17-.29,94.25-39.52,54.76ZM190.79,390.21c24.01-4.94,45.23,14.5,41.99,38.8-5.6,42.06-74.04,37.32-67.07-12.56,1.62-11.62,13.74-23.9,25.08-26.24Z"/>
</svg>