<?xml version="1.0" encoding="UTF-8"?>
<svg id="Layer_1" data-name="Layer 1" xmlns="http://www.w3.org/2000/svg" viewBox="0 0 800 800">
  <defs>
    <style>
      .cls-1 {
        fill: none;
      }

      .cls-2 {
        fill: #010101;
      }
    </style>
  </defs>
  <rect class="cls-1" width="800" height="800"/>
  <path class="cls-2" d="M548.38,290.35l26.32,103.8v-103.8h43.86v219.31h-61.41l-26.32-103.8v103.8h-43.86v-219.31h61.41ZM773.54,202.63v43.86H24.98v-43.86h96.49v-27.05c0-9.42,13.95-30.8,21.25-37.23,21.84-19.27,33.73-12.91,58.3-16.26,17.24-2.35,17.8-16.73,24-28.64,15.37-29.57,47.3-43.32,79.52-33.69,15.56,4.65,24.37,15.65,40.54,1.69,21.32-18.41,28.24-29.37,60.82-27.03,25.29,1.82,31.12,12.78,47.54,27.03,16.08,13.96,25,2.96,40.54-1.69,32.28-9.66,64.28,4.14,79.52,33.69,6.15,11.93,6.8,26.3,24,28.64,24.8,3.38,37.34-2.94,59.1,16.93,6.67,6.09,20.45,27.96,20.45,36.57v27.05h96.49ZM633.18,181.43c0-.95-4.54-7.54-5.78-8.84-9.67-10.14-20.71-5.45-32.94-6.54-19.2-1.7-39.11-13.25-49.6-29.35-6.69-10.26-10.05-29.17-21.32-34.24-14.18-6.39-24.44,4.58-37.73,7.62-20.67,4.73-41.45.55-58.01-12.75-6.54-5.25-14.07-16.93-22.29-18.64-19.12-3.96-22.82,9.02-34.79,18.64-16.57,13.31-37.34,17.48-58.01,12.75-13.29-3.04-23.54-14-37.73-7.62-11.27,5.07-14.63,23.98-21.32,34.24-10.49,16.09-30.41,27.64-49.6,29.35-12.22,1.08-23.26-3.6-32.94,6.54-1.24,1.3-5.78,7.89-5.78,8.84v21.2h467.85v-21.2ZM773.54,553.51v43.86h-96.49v27.05c0,13.31-18.4,36.5-29.69,43.41-21,12.86-28.78,7.21-49.86,10.08-17.19,2.34-17.84,16.71-24,28.64-15.24,29.54-47.24,43.34-79.52,33.69-15.53-4.65-24.45-15.65-40.54-1.69-16.42,14.25-22.25,25.21-47.54,27.03-32.58,2.34-39.5-8.62-60.82-27.03-16.16-13.95-24.98-2.96-40.54,1.69-32.22,9.64-64.15-4.11-79.52-33.69-6.19-11.91-6.76-26.29-24-28.64-21.09-2.87-28.86,2.78-49.86-10.08-11.3-6.92-29.69-30.11-29.69-43.41v-27.05H24.98v-43.86h748.56ZM633.18,597.37H165.33v21.2c0,.95,4.54,7.54,5.78,8.84,9.67,10.14,20.71,5.45,32.94,6.54,19.2,1.7,39.11,13.25,49.6,29.35,6.69,10.26,10.05,29.17,21.32,34.24,14.19,6.39,24.44-4.58,37.73-7.62,20.95-4.79,41.27-.69,58.01,12.75,6.54,5.25,14.07,16.93,22.29,18.64,19.12,3.96,22.82-9.02,34.79-18.64,16.74-13.45,37.06-17.55,58.01-12.75,13.29,3.04,23.54,14,37.73,7.62,11.27-5.07,14.63-23.98,21.32-34.24,10.49-16.09,30.41-27.64,49.6-29.35,12.22-1.08,23.26,3.6,32.94-6.54,1.24-1.3,5.78-7.89,5.78-8.84v-21.2ZM132.4,495c-6.95,5.64-24.9,14.65-33.59,14.65H24.98v-219.31h75.29c7.41,0,26.01,9.68,32.13,14.65,29.76,24.16,31.01,65.91,8.3,95.47,23.53,28.6,20.64,71.03-8.3,94.53ZM106.01,427.89c-1.08-1.04-9.54-5.96-10.13-5.96h-27.05v43.86h27.05c.96,0,9.37-5.28,10.76-6.79,8.21-8.92,8.15-22.61-.63-31.12ZM106.01,340.16c-1.08-1.04-9.54-5.96-10.13-5.96h-27.05v43.86h27.05c.96,0,9.37-5.28,10.76-6.79,8.21-8.92,8.15-22.61-.63-31.12ZM318.73,497.08c-.47,2.01-33.46,18.57-36.42,19.3-1.07.26-1.94.97-2.97-.03l-46.99-94.18-8.54-.24v87.72h-43.86v-219.31c23.59,2.17,52.33-2.92,75.29,0,55.94,7.11,75.53,79.28,32.13,116.93-2.57,2.23-9.54,4.86-9.3,7.8l40.65,82ZM261.62,340.99c-1.39-1.51-9.8-6.79-10.76-6.79h-27.05v43.86h27.05c.59,0,9.05-4.91,10.13-5.96,8.78-8.51,8.84-22.19.63-31.12ZM773.6,446.12c-2,28.72-26.78,63.53-57.82,63.53h-75.29v-219.31h76.76c28.87,0,54.25,35.23,56.34,62.08,2,25.68,1.81,67.88.01,93.69ZM729.75,355.34c-.48-4.94-3.19-11.71-6.76-15.17-1.08-1.04-9.54-5.96-10.13-5.96h-28.51v131.58h28.51c5.45,0,16.38-12.13,16.72-18.37-2.02-29.47,3-63.13.17-92.09ZM465.05,348.1v161.55h-43.86v-87.72h-43.86v87.72h-43.86v-163.02c0-26.24,33.12-53.39,57.9-56.14,32.21-3.56,73.68,23.4,73.68,57.6ZM421.19,351.02c0-.72-6.18-10.52-7.41-11.59-8.37-7.33-21.36-6.8-29.49.6-1.24,1.13-6.96,10.34-6.96,10.99v27.05h43.86v-27.05Z"/>
</svg>