<?xml version="1.0" encoding="UTF-8"?>
<svg id="Layer_1" data-name="Layer 1" xmlns="http://www.w3.org/2000/svg" viewBox="0 0 800 800">
  <defs>
    <style>
      .cls-1 {
        fill: none;
      }

      .cls-2 {
        fill: #010101;
      }
    </style>
  </defs>
  <rect class="cls-1" width="800" height="800"/>
  <path class="cls-2" d="M632.26,552.18l-45.88-129.31-375.97.03-44.73,129.27H31.44v215.35h172.28v-48.09c0-.64,5.62-9.69,6.84-10.79,7.98-7.27,20.73-7.79,28.95-.59,1.21,1.06,7.28,10.68,7.28,11.38v48.09h304.36v-48.09c0-.64,5.62-9.69,6.84-10.79,7.98-7.27,20.73-7.79,28.95-.59,1.21,1.06,7.28,10.68,7.28,11.38v48.09h172.28v-215.35h-134.23ZM506.64,466.04h49.53l29.43,86.14h-78.96v-86.14ZM334.36,466.04h129.21v86.14h-129.21v-86.14ZM241.76,466.04h49.53v86.14h-78.96l29.43-86.14ZM723.42,638.32h-43.07v43.07h43.07v43.07h-86.14c-4.29-85.91-124.33-85.26-130.03.02l-217.41-.02c-3.61-85.74-125.72-85.33-129.2,0h-86.14v-43.07h43.07v-43.07h-43.07v-43.07h648.92v43.07ZM31.44,32.47v43.07h44.51v217.5c0,27.79,34.71,53.9,60.96,55.32,8.59.47,29.79-6,31.34-5.61,5.27,1.35,28.48,31.45,33.32,31.45,4.57-2.84,29.48-26.65,29.48-29.48-2.9-7.97-30.02-27.71-31.45-33.32-.61-2.38,5.56-15.79,5.56-19.8V75.54h129.21v143.57h43.07v49.53l-54.55,44.51v71.78c0,.15,2,2.15,2.15,2.15h40.2c.15,0,2.15-2,2.15-2.15v-53.12l32.09-25.01,31.08,25.01v53.12c0,.15,2,2.15,2.15,2.15h40.2c.15,0,2.15-2,2.15-2.15v-71.78c-15.13-15.54-35.19-27.11-50.98-42.4-.92-.89-2.31-1.28-3.57-1.38v-50.25h43.07V75.54h129.21v217.5c0,4.25,6.8,15.51,5.08,19.33-2.74,6.09-30.97,27.38-30.97,32.35,2.84,4.57,26.65,29.48,29.48,29.48,7.97-2.91,27.71-30.01,33.32-31.45,1.55-.4,22.75,6.07,31.34,5.61,27.4-1.48,60.96-27.85,60.96-56.75V75.54h44.51v-43.07H31.44ZM119.01,75.54h43.07v146.44c-14.67-3.8-28.38-3.81-43.07,0V75.54ZM125.24,299.02c-19.43-19.43,9.26-49.49,29.56-31.72,21.9,19.17-8.8,52.48-29.56,31.72ZM420.5,176.04h-43.07v-100.5h43.07v100.5ZM635.85,75.54h43.07v146.44c-14.69-3.81-28.4-3.8-43.07,0V75.54ZM642.08,299.02c-19.43-19.43,9.26-49.49,29.56-31.72,21.9,19.17-8.8,52.48-29.56,31.72ZM420.5,638.32v43.07h-43.07v-43.07h43.07Z"/>
</svg>