<svg id="Layer_1" data-name="Layer 1" xmlns="http://www.w3.org/2000/svg" viewBox="0 0 800 800"><defs><style>.cls-1{fill:none;}.cls-2{fill:#1f3050;}</style></defs><title>in discussion</title><rect class="cls-1" width="800" height="800"/><path class="cls-2" d="M771.59,550.74c-3.81,39.88-38.1,70.37-80.62,71.7-30.31.94-30.31.94-30.31,31.88,0,4.49.11,9,0,13.47-.68,24.61-21.93,36.8-42.78,23.55-31.15-19.81-61.73-40.52-92.24-61.33-7.78-5.3-15.44-7.88-24.92-7.74-30.46.47-60.95,1-91.38,0-56.49-2-89.65-44.53-84.21-104.41.41-4.54,2.61-5.93,6.76-5.82,5,.14,10,0,15,0,10,0,21.91-3.35,29.45.95,8.75,5,2.21,18.09,3.83,27.54,3,17.47,14,27,33.7,27.2,33,.27,65.92.4,98.87-.1,11.52-.17,21.27,2.57,30.76,9.13,19.64,13.55,39.83,26.3,60.47,39.83,4.23-5.79,2.33-11.85,2.47-17.4.51-21.23,9.86-31,31.24-31.33,16-.28,32,.2,47.94-.12C707.33,567.34,718,557,718,535.54q.29-99.54,0-199.08c-.07-22.27-9.82-31.69-32.15-31.76-41-.14-81.9-.33-122.85.17-9.47.12-13.77-1.71-12.74-12.13,1.36-13.77-5.61-31.94,2.58-40.32s26.42-2.28,40.23-2.43c33-.33,65.92-.46,98.88,0,42.65.57,76.45,31.42,79.67,72,2.3,8.79,1,17.75,1,26.62q.21,93,0,186C772.65,540,773.69,545.47,771.59,550.74ZM511,287.47q0,47.13,0,94.28c-.06,56.74-32.88,90.33-89.82,91.05-40.93.52-81.87.28-122.81,0a39.21,39.21,0,0,0-23.69,7C245,500,215,519.67,185.22,539.61c-10,6.72-20.32,10.68-32,4.22-11.44-6.32-15-16.56-14.69-28.93.23-9-.61-18,.19-26.92,1-11.38-2.16-16.57-14.71-15.36-8.8.85-18-.22-26.79-1.61-42.06-6.67-71-38.68-71.48-81.17-.75-69.33-.87-138.68,0-208C26.3,135,62.89,99.62,111,99.33q157.25-.94,314.52,0c51.53.35,85.31,36.17,85.41,87.86Q511,237.35,511,287.47Zm-54.37,80.22c0-59.37.14-118.74-.08-178.12-.09-23.91-9.7-34.46-31.43-34.49q-156.55-.22-313.11,0c-20,0-31.37,10.29-31.52,30.07q-.78,101,0,202.07c.15,19.19,11,29.06,30.21,30,11,.54,22,.18,33,.18,43.75,0,47.27,3.31,50.19,50.45,21.7-14.23,41.83-26.87,61.32-40.44,10.32-7.19,21-10.27,33.52-10.16,44.44.4,88.89.29,133.33.1,24.53-.1,34.11-9.94,34.58-34.71C456.66,377.67,456.58,372.68,456.58,367.69Z" transform="translate(0)"/></svg>